<?xml version="1.0" encoding="UTF-8" standalone="no"?><!DOCTYPE svg PUBLIC "-//W3C//DTD SVG 1.1//EN" "http://www.w3.org/Graphics/SVG/1.1/DTD/svg11.dtd"><svg width="100%" height="100%" viewBox="0 0 136 153" version="1.1" xmlns="http://www.w3.org/2000/svg" xmlns:xlink="http://www.w3.org/1999/xlink" xml:space="preserve" xmlns:serif="http://www.serif.com/" style="fill-rule:evenodd;clip-rule:evenodd;"><g id="leima"><path d="M6.077,30.793c0,0 6.769,66.997 15.916,83.003c9.146,16.007 35.304,34.071 43.764,34.757c8.461,0.686 39.649,-21.723 45.822,-34.071c6.174,-12.347 13.123,-44.92 15.41,-82.878c-3.895,-2.126 -54.372,-26.936 -60.432,-27.336c-4.276,-0.282 -60.48,26.525 -60.48,26.525" style="fill:#6f6f6e;fill-rule:nonzero;"/><path d="M116.402,37.014l-81.802,81.802l-8.44,-17.514l-4.086,-19.664l60.617,-60.618" style="fill:#575756;fill-rule:nonzero;"/><path d="M85.898,123.912l-38.73,0l0,-99.706l3.487,-3.396l4.822,-3.275l21.733,0l4.753,2.732l3.935,4.075l0,99.57Z" style="fill:#e42122;fill-rule:nonzero;"/><path d="M15.445,37.862c0,0 5.721,56.616 13.45,70.142c7.729,13.526 29.833,28.791 36.983,29.371c7.149,0.579 33.505,-18.357 38.722,-28.791c5.217,-10.435 11.089,-37.96 13.021,-70.036c-3.291,-1.797 -45.947,-22.762 -51.067,-23.101c-3.613,-0.238 -51.109,22.415 -51.109,22.415Z" style="fill:none;fill-rule:nonzero;stroke:#dadada;stroke-width:7.49px;"/><path d="M76.252,59.231c0,2.485 -1.284,3.728 -3.851,3.728l-11.797,0c-2.567,0 -3.85,-1.243 -3.85,-3.728l0,-22.677c0,-2.485 1.283,-3.728 3.85,-3.728l11.797,0c2.567,0 3.851,1.243 3.851,3.728l0,11.064l-1.895,1.894l-11.063,0l0,8.435l6.418,0l0,-5.012l6.54,0l0,6.296Zm-6.54,-21.393l-6.418,0l0,7.212l6.418,0l0,-7.212Z" style="fill:#fff;fill-rule:nonzero;"/><g><clipPath id="_clip1"><path d="M6.077,30.793c0,0 6.769,66.997 15.916,83.004c9.146,16.006 35.304,34.07 43.764,34.756c0.121,0.009 0.248,0.015 0.378,0.015l0.036,0c9.016,-0.027 39.331,-21.931 45.409,-34.086c6.173,-12.347 13.122,-44.921 15.409,-82.878c-3.895,-2.126 -54.371,-26.935 -60.431,-27.336c-0.022,-0.001 -0.047,-0.002 -0.072,-0.002c-4.787,-0.003 -60.409,26.527 -60.409,26.527Z" clip-rule="nonzero"/></clipPath><g clip-path="url(#_clip1)"><path d="M12.27,148.639l113.068,0l-56.755,-80.08l-56.313,80.08Z" style="fill:#fcdc34;fill-rule:nonzero;"/><path d="M11.647,133.327l46.5,1.027l-22.769,-39.873l-23.731,38.846Z" style="fill:#f39322;fill-rule:nonzero;"/><path d="M42.087,106.239l-19.918,27.258l44.593,15.94l-24.675,-43.198Z" style="fill:#f9b03d;fill-rule:nonzero;"/><path d="M105.159,83.005l-29.983,50.492l60.191,0l-30.208,-50.492Z" style="fill:#ef7a2c;fill-rule:nonzero;"/><path d="M65.928,149.138l49.084,-15.887l-21.86,-30.027l-27.224,45.914Z" style="fill:#f7c02d;fill-rule:nonzero;"/><path d="M68.358,85.261l-12.202,34.432l13.645,-4.098l-2.909,26.729l17.083,-38.643l-16.625,4.969l1.008,-23.389Z" style="fill:#e6292a;fill-rule:nonzero;"/></g></g><path d="M22.074,113.936l3.464,-4.278c0,0 4.105,9.225 19.178,21.45c15.073,12.225 21.461,12.503 21.461,12.503c0,0 6.879,0.556 25.911,-15.142c15.365,-12.674 16.32,-17.543 18.921,-25.949c1.395,-4.511 2.089,-7.088 2.089,-7.088c0.874,1.461 3.649,4.542 3.649,4.542c0,0 -3.238,12.523 -6.222,16.521c-2.607,3.66 -8.183,11.28 -24.945,22.775c-14.607,9.85 -19.2,9.291 -19.2,9.291c0,0 -7.183,0.637 -25.331,-14.05c0,0 -12.603,-9.606 -18.975,-20.575" style="fill:#6f6f6e;fill-rule:nonzero;"/></g></svg>